<svg width="224" height="150" viewBox="0 0 224 150" fill="none" xmlns="http://www.w3.org/2000/svg">
<path d="M20.393 42.22V47.715H10.453V52.125H17.873V57.305H10.453V67H3.55797V42.22H20.393ZM35.1463 41.835C37.4796 41.835 39.603 42.3833 41.5163 43.48C43.453 44.5533 44.9696 46.0583 46.0663 47.995C47.1863 49.9317 47.7463 52.1133 47.7463 54.54C47.7463 56.9667 47.1863 59.1483 46.0663 61.085C44.9463 63.0217 43.418 64.5383 41.4813 65.635C39.568 66.7083 37.4563 67.245 35.1463 67.245C32.8363 67.245 30.713 66.7083 28.7763 65.635C26.8396 64.5383 25.3113 63.0217 24.1913 61.085C23.0713 59.1483 22.5113 56.9667 22.5113 54.54C22.5113 52.1133 23.0713 49.9317 24.1913 47.995C25.3113 46.0583 26.8396 44.5533 28.7763 43.48C30.713 42.3833 32.8363 41.835 35.1463 41.835ZM35.1463 48.205C33.3963 48.205 32.0196 48.7767 31.0163 49.92C30.013 51.04 29.5113 52.58 29.5113 54.54C29.5113 56.4533 30.013 57.9817 31.0163 59.125C32.0196 60.2683 33.3963 60.84 35.1463 60.84C36.873 60.84 38.238 60.2683 39.2413 59.125C40.2446 57.9817 40.7463 56.4533 40.7463 54.54C40.7463 52.58 40.2446 51.04 39.2413 49.92C38.2613 48.7767 36.8963 48.205 35.1463 48.205ZM62.7635 41.835C65.0968 41.835 67.2201 42.3833 69.1335 43.48C71.0701 44.5533 72.5868 46.0583 73.6835 47.995C74.8035 49.9317 75.3635 52.1133 75.3635 54.54C75.3635 56.9667 74.8035 59.1483 73.6835 61.085C72.5635 63.0217 71.0351 64.5383 69.0985 65.635C67.1851 66.7083 65.0735 67.245 62.7635 67.245C60.4535 67.245 58.3301 66.7083 56.3935 65.635C54.4568 64.5383 52.9285 63.0217 51.8085 61.085C50.6885 59.1483 50.1285 56.9667 50.1285 54.54C50.1285 52.1133 50.6885 49.9317 51.8085 47.995C52.9285 46.0583 54.4568 44.5533 56.3935 43.48C58.3301 42.3833 60.4535 41.835 62.7635 41.835ZM62.7635 48.205C61.0135 48.205 59.6368 48.7767 58.6335 49.92C57.6301 51.04 57.1285 52.58 57.1285 54.54C57.1285 56.4533 57.6301 57.9817 58.6335 59.125C59.6368 60.2683 61.0135 60.84 62.7635 60.84C64.4901 60.84 65.8551 60.2683 66.8585 59.125C67.8618 57.9817 68.3635 56.4533 68.3635 54.54C68.3635 52.58 67.8618 51.04 66.8585 49.92C65.8785 48.7767 64.5135 48.205 62.7635 48.205ZM97.1007 42.22V47.715H90.4157V67H83.5557V47.715H76.9407V42.22H97.1007ZM106.259 58.705V67H99.3636V42.22H109.654C112.64 42.22 114.915 42.9783 116.479 44.495C118.065 45.9883 118.859 47.995 118.859 50.515C118.859 52.0783 118.509 53.4783 117.809 54.715C117.109 55.9517 116.059 56.9317 114.659 57.655C113.282 58.355 111.614 58.705 109.654 58.705H106.259ZM108.884 53.28C110.89 53.28 111.894 52.3583 111.894 50.515C111.894 48.695 110.89 47.785 108.884 47.785H106.259V53.28H108.884ZM134.146 67L129.141 57.865H128.441V67H121.546V42.22H132.431C134.415 42.22 136.095 42.57 137.471 43.27C138.871 43.9467 139.921 44.8917 140.621 46.105C141.321 47.3183 141.671 48.6833 141.671 50.2C141.671 51.9267 141.193 53.4317 140.236 54.715C139.28 55.975 137.903 56.8617 136.106 57.375L141.741 67H134.146ZM128.441 53.245H131.836C133.75 53.245 134.706 52.3817 134.706 50.655C134.706 49.8383 134.461 49.1967 133.971 48.73C133.505 48.2633 132.793 48.03 131.836 48.03H128.441V53.245ZM151.307 42.22V67H144.412V42.22H151.307ZM178.001 67H171.106L162.006 53.175V67H155.111V42.255H162.006L171.106 56.255V42.255H178.001V67ZM200.46 42.22V47.715H193.775V67H186.915V47.715H180.3V42.22H200.46ZM221.203 59.86C221.203 61.2367 220.853 62.485 220.153 63.605C219.453 64.725 218.426 65.6117 217.073 66.265C215.72 66.9183 214.098 67.245 212.208 67.245C209.338 67.245 206.97 66.5567 205.103 65.18C203.26 63.8033 202.256 61.8433 202.093 59.3H209.408C209.478 60.1633 209.746 60.805 210.213 61.225C210.68 61.645 211.251 61.855 211.928 61.855C212.535 61.855 213.001 61.7033 213.328 61.4C213.678 61.0967 213.853 60.665 213.853 60.105C213.853 59.3583 213.515 58.7867 212.838 58.39C212.161 57.97 211.088 57.515 209.618 57.025C208.055 56.4883 206.76 55.9633 205.733 55.45C204.73 54.9367 203.855 54.1667 203.108 53.14C202.385 52.1133 202.023 50.795 202.023 49.185C202.023 47.645 202.42 46.3267 203.213 45.23C204.006 44.11 205.091 43.27 206.468 42.71C207.845 42.1267 209.408 41.835 211.158 41.835C214.005 41.835 216.268 42.5117 217.948 43.865C219.651 45.195 220.585 47.0733 220.748 49.5H213.363C213.27 48.73 213.025 48.1583 212.628 47.785C212.255 47.4117 211.753 47.225 211.123 47.225C210.586 47.225 210.166 47.365 209.863 47.645C209.56 47.925 209.408 48.345 209.408 48.905C209.408 49.605 209.735 50.1533 210.388 50.55C211.065 50.9467 212.115 51.39 213.538 51.88C215.101 52.44 216.396 52.9883 217.423 53.525C218.45 54.0617 219.336 54.8433 220.083 55.87C220.83 56.8967 221.203 58.2267 221.203 59.86ZM69.2154 94.54C72.412 92.1833 74.967 90.025 76.8804 88.065C78.7937 86.0817 79.7504 84.2967 79.7504 82.71C79.7504 81.17 79.132 80.4 77.8954 80.4C77.1954 80.4 76.682 80.6683 76.3554 81.205C76.052 81.7417 75.8887 82.6283 75.8654 83.865H69.1804C69.3204 80.7617 70.2537 78.4517 71.9804 76.935C73.707 75.395 75.8654 74.625 78.4554 74.625C81.2787 74.625 83.367 75.325 84.7204 76.725C86.0737 78.125 86.7504 79.8983 86.7504 82.045C86.7504 84.355 85.922 86.5717 84.2654 88.695C82.632 90.8183 80.6137 92.6267 78.2104 94.12H87.1004V99.685H69.2154V94.54ZM103.25 87.33L112.84 100H104.545L96.7396 89.045V100H89.8446V75.22H96.7396V85.93L104.615 75.22H112.84L103.25 87.33ZM114.298 94.54C117.495 92.1833 120.05 90.025 121.963 88.065C123.877 86.0817 124.833 84.2967 124.833 82.71C124.833 81.17 124.215 80.4 122.978 80.4C122.278 80.4 121.765 80.6683 121.438 81.205C121.135 81.7417 120.972 82.6283 120.948 83.865H114.263C114.403 80.7617 115.337 78.4517 117.063 76.935C118.79 75.395 120.948 74.625 123.538 74.625C126.362 74.625 128.45 75.325 129.803 76.725C131.157 78.125 131.833 79.8983 131.833 82.045C131.833 84.355 131.005 86.5717 129.348 88.695C127.715 90.8183 125.697 92.6267 123.293 94.12H132.183V99.685H114.298V94.54ZM153.128 80.575H142.488V84.565C142.978 84.075 143.608 83.69 144.378 83.41C145.171 83.13 146.046 82.99 147.003 82.99C148.636 82.99 150.001 83.3633 151.098 84.11C152.218 84.8567 153.046 85.86 153.583 87.12C154.119 88.3567 154.388 89.7217 154.388 91.215C154.388 93.9683 153.618 96.1267 152.078 97.69C150.538 99.2533 148.379 100.035 145.603 100.035C143.666 100.035 141.986 99.6967 140.563 99.02C139.139 98.3433 138.054 97.3983 137.308 96.185C136.561 94.9717 136.188 93.5717 136.188 91.985H142.908C142.978 92.5683 143.199 93.07 143.573 93.49C143.946 93.91 144.506 94.12 145.253 94.12C146.069 94.12 146.676 93.8517 147.073 93.315C147.493 92.755 147.703 92.02 147.703 91.11C147.703 90.2233 147.481 89.5467 147.038 89.08C146.594 88.6133 145.976 88.38 145.183 88.38C144.576 88.38 144.074 88.52 143.678 88.8C143.304 89.08 143.071 89.4417 142.978 89.885H136.258V74.52H153.128V80.575Z" fill="white"/>
</svg>
