<svg width="502" height="293" viewBox="0 0 502 293" fill="none" xmlns="http://www.w3.org/2000/svg">
<path d="M26.128 21.472V36.448H55.44V55.52H26.128V71.904H59.28V92H0.912V1.376H59.28V21.472H26.128ZM154.499 92H129.283L96.003 41.44V92H70.787V1.504H96.003L129.283 52.704V1.504H154.499V92ZM193.628 21.472V36.448H222.94V55.52H193.628V71.904H226.78V92H168.412V1.376H226.78V21.472H193.628ZM284.367 92L266.063 58.592H263.503V92H238.287V1.376H278.095C285.348 1.376 291.492 2.656 296.527 5.216C301.647 7.69066 305.487 11.1467 308.047 15.584C310.607 20.0213 311.887 25.0133 311.887 30.56C311.887 36.8747 310.138 42.3787 306.639 47.072C303.14 51.68 298.106 54.9227 291.535 56.8L312.143 92H284.367ZM263.503 41.696H275.919C282.916 41.696 286.415 38.5387 286.415 32.224C286.415 29.2373 285.519 26.8907 283.727 25.184C282.02 23.4773 279.418 22.624 275.919 22.624H263.503V41.696ZM364.792 0.607994C376.397 0.607994 385.912 3.424 393.336 9.056C400.76 14.688 405.24 22.2827 406.776 31.84H380.28C378.915 29.3653 376.909 27.4027 374.264 25.952C371.619 24.5013 368.504 23.776 364.92 23.776C358.776 23.776 353.869 25.8667 350.2 30.048C346.616 34.144 344.824 39.648 344.824 46.56C344.824 54.4107 346.744 60.384 350.584 64.48C354.509 68.4907 360.227 70.496 367.736 70.496C372.003 70.496 375.757 69.472 379 67.424C382.243 65.376 384.803 62.3467 386.68 58.336H361.592V40.416H407.544V65.376C404.301 72.8853 399.096 79.328 391.928 84.704C384.845 89.9947 375.885 92.64 365.048 92.64C355.832 92.64 347.768 90.72 340.856 86.88C333.944 82.9547 328.611 77.4933 324.856 70.496C321.187 63.4987 319.352 55.52 319.352 46.56C319.352 37.6 321.187 29.664 324.856 22.752C328.611 15.7547 333.901 10.336 340.728 6.49599C347.555 2.57066 355.576 0.607994 364.792 0.607994ZM501.475 1.376L469.475 63.2V92H444.387V63.2L412.387 1.376H441.187L457.187 35.936L473.059 1.376H501.475ZM128.831 100.48C136.596 100.48 143.508 101.931 149.567 104.832C155.711 107.648 160.703 111.701 164.543 116.992C168.383 122.197 170.985 128.256 172.351 135.168H145.854C144.404 131.584 142.143 128.811 139.071 126.848C135.999 124.8 132.457 123.776 128.447 123.776C122.9 123.776 118.42 125.867 115.007 130.048C111.593 134.144 109.887 139.648 109.887 146.56C109.887 153.472 111.593 159.019 115.007 163.2C118.42 167.381 122.9 169.472 128.447 169.472C132.457 169.472 135.999 168.448 139.071 166.4C142.143 164.352 144.404 161.536 145.854 157.952H172.351C170.303 168.533 165.439 176.981 157.759 183.296C150.164 189.525 140.521 192.64 128.831 192.64C119.871 192.64 112.02 190.72 105.279 186.88C98.6225 182.955 93.4598 177.493 89.7905 170.496C86.2065 163.499 84.4145 155.52 84.4145 146.56C84.4145 137.6 86.2065 129.621 89.7905 122.624C93.4598 115.627 98.6225 110.208 105.279 106.368C112.02 102.443 119.871 100.48 128.831 100.48ZM208.816 172.928H237.104V192H183.6V101.376H208.816V172.928ZM271.176 101.376V153.088C271.176 158.208 272.285 162.176 274.504 164.992C276.808 167.723 280.264 169.088 284.872 169.088C289.48 169.088 292.936 167.68 295.24 164.864C297.629 162.048 298.824 158.123 298.824 153.088V101.376H323.912V153.088C323.912 161.621 322.162 168.875 318.664 174.848C315.25 180.821 310.557 185.344 304.584 188.416C298.61 191.403 291.869 192.896 284.36 192.896C276.85 192.896 270.194 191.403 264.392 188.416C258.674 185.429 254.194 180.949 250.952 174.976C247.709 169.003 246.088 161.707 246.088 153.088V101.376H271.176ZM394.825 145.408C400.201 146.688 404.425 149.333 407.497 153.344C410.654 157.355 412.233 162.005 412.233 167.296C412.233 175.147 409.63 181.248 404.425 185.6C399.219 189.867 391.753 192 382.025 192H337.225V101.376H381.001C390.131 101.376 397.257 103.381 402.377 107.392C407.582 111.403 410.185 117.205 410.185 124.8C410.185 130.176 408.777 134.699 405.961 138.368C403.145 141.952 399.433 144.299 394.825 145.408ZM362.441 137.6H375.113C381.427 137.6 384.585 134.955 384.585 129.664C384.585 124.203 381.385 121.472 374.985 121.472H362.441V137.6ZM376.649 171.776C383.219 171.776 386.505 169.045 386.505 163.584C386.505 157.952 383.219 155.136 376.649 155.136H362.441V171.776H376.649ZM91.5305 272.032C103.221 263.413 112.565 255.52 119.562 248.352C126.56 241.099 130.059 234.571 130.059 228.768C130.059 223.136 127.797 220.32 123.275 220.32C120.715 220.32 118.837 221.301 117.643 223.264C116.533 225.227 115.936 228.469 115.851 232.992H91.4025C91.9145 221.643 95.3278 213.195 101.643 207.648C107.957 202.016 115.851 199.2 125.323 199.2C135.648 199.2 143.285 201.76 148.235 206.88C153.184 212 155.659 218.485 155.659 226.336C155.659 234.784 152.629 242.891 146.571 250.656C140.597 258.421 133.216 265.035 124.427 270.496H156.939V290.848H91.5305V272.032ZM215.999 245.664L251.071 292H220.735L192.191 251.936V292H166.975V201.376H192.191V240.544L220.991 201.376H251.071L215.999 245.664ZM256.406 272.032C268.096 263.413 277.44 255.52 284.438 248.352C291.435 241.099 294.934 234.571 294.934 228.768C294.934 223.136 292.672 220.32 288.15 220.32C285.59 220.32 283.712 221.301 282.518 223.264C281.408 225.227 280.811 228.469 280.726 232.992H256.278C256.79 221.643 260.203 213.195 266.518 207.648C272.832 202.016 280.726 199.2 290.198 199.2C300.523 199.2 308.16 201.76 313.11 206.88C318.059 212 320.534 218.485 320.534 226.336C320.534 234.784 317.504 242.891 311.446 250.656C305.472 258.421 298.091 265.035 289.302 270.496H321.814V290.848H256.406V272.032ZM398.41 220.96H359.498V235.552C361.29 233.76 363.594 232.352 366.41 231.328C369.311 230.304 372.511 229.792 376.01 229.792C381.983 229.792 386.975 231.157 390.986 233.888C395.082 236.619 398.111 240.288 400.074 244.896C402.036 249.419 403.018 254.411 403.018 259.872C403.018 269.941 400.202 277.835 394.57 283.552C388.938 289.269 381.044 292.128 370.89 292.128C363.807 292.128 357.663 290.891 352.458 288.416C347.252 285.941 343.284 282.485 340.554 278.048C337.823 273.611 336.458 268.491 336.458 262.688H361.034C361.29 264.821 362.1 266.656 363.466 268.192C364.831 269.728 366.879 270.496 369.61 270.496C372.596 270.496 374.815 269.515 376.266 267.552C377.802 265.504 378.57 262.816 378.57 259.488C378.57 256.245 377.759 253.771 376.138 252.064C374.516 250.357 372.255 249.504 369.354 249.504C367.135 249.504 365.3 250.016 363.85 251.04C362.484 252.064 361.631 253.387 361.29 255.008H336.714V198.816H398.41V220.96Z" fill="white"/>
</svg>
